<svg width="430" height="83" viewBox="0 0 430 83" fill="none" xmlns="http://www.w3.org/2000/svg">
<g clip-path="url(#clip0)">
<path d="M100.045 0.0751343L128.974 41.53L100.06 82.9699H132.613V0.0751343H100.045Z" fill="url(#paint0_linear)"/>
<path d="M33.3383 0H24.9943V8.30301H33.3383V0Z" fill="url(#paint1_linear)"/>
<path d="M24.9716 8.34058H16.6276V16.6436H24.9716V8.34058Z" fill="url(#paint2_linear)"/>
<path d="M16.6805 41.5301H8.33646V49.8331H0V58.1361H8.34402V49.8331H16.6805V41.5301Z" fill="url(#paint3_linear)"/>
<path d="M78.1015 0.0751343H58.3779H50.0339V8.34057H41.6823V16.6436H50.0263V24.909V24.9316V33.2346H58.3704V41.5075V41.53H50.0339V33.2496H41.705V24.9766H33.361V33.2796H41.6899V41.5451V41.5526V49.8481H50.0263V58.0985H58.3704V66.3865H66.7144V74.6895H58.3779V66.394H50.0339V58.106H41.6823V49.803H33.3383V41.53H24.9943V49.8331H33.3383V58.106V66.394H24.9943V58.106H16.6503V66.409H24.9943V74.697H33.3383V83H41.6823V74.697H33.3383V66.409H41.6823H50.0263V74.697V83H58.3704V82.9699H78.109L107.022 41.53L78.1015 0.0751343ZM58.3779 16.6135H50.0339V8.37814H58.3779V16.6135ZM66.7219 58.106H58.3779V49.803H66.7219V58.106ZM75.0735 41.5075H66.7295V33.2045H75.0735V41.5075Z" fill="url(#paint4_linear)"/>
<path d="M170.543 9.59543C180.034 9.59543 190.319 14.7425 192.086 26.9303C188.091 26.9303 184.558 26.9303 180.563 26.9303C178.924 22.3017 175.458 20.2203 170.543 20.2203C163.664 20.2203 159.148 25.3674 159.148 32.9265C159.148 39.6365 163.603 45.505 170.543 45.5651C175.519 45.5651 179.513 43.0855 180.759 38.2013C184.686 38.2013 188.288 38.2013 192.282 38.2013C190.583 51.1029 180.299 56.1824 170.543 56.1824C158.884 56.25 147.104 48.4279 147.036 32.919C147.096 17.41 158.884 9.59543 170.543 9.59543Z" fill="#282828"/>
<path d="M200.075 20.5434C200.075 17.0268 200.075 13.5704 200.075 10.1214H234.123C234.123 13.5779 234.123 17.0268 234.123 20.5434H222.925V55.7316C219.059 55.7316 215.2 55.7316 211.334 55.7316V20.5434H200.075Z" fill="#282828"/>
<path d="M244.733 55.7241C244.733 40.5382 244.733 25.3599 244.733 10.1139C251.347 10.1139 258.159 10.1139 264.902 10.1139C286.838 10.1815 286.838 44.0623 264.902 44.0623H256.452V55.7241C252.525 55.7241 248.591 55.7241 244.733 55.7241ZM264.834 20.5434C262.085 20.4757 259.14 20.5434 256.452 20.5434C256.452 24.2553 256.452 29.8608 256.452 33.5727H264.834C271.252 33.5727 271.645 20.6035 264.834 20.5434Z" fill="#282828"/>
<path d="M322.132 20.5434C315.321 20.5434 311.915 20.5434 305.172 20.5434V26.9979H320.758C320.758 30.4544 320.758 33.9033 320.758 37.3598H305.172C305.172 40.0348 305.172 42.6346 305.172 45.3772C311.915 45.3772 315.842 45.3772 322.721 45.3772C322.721 48.7661 322.721 52.2826 322.721 55.7391C311.983 55.7391 304.122 55.7391 293.513 55.7391C293.513 40.4931 293.513 25.2472 293.513 10.1289C304.122 10.1289 311.387 10.1289 322.132 10.1289C322.132 13.5027 322.132 17.0193 322.132 20.5434Z" fill="#282828"/>
<path d="M341.84 55.7241H330.378V54.0334L351.007 9.5278H356.052L376.742 54.0334V55.7241H365.279L353.492 29.0117L341.84 55.7241Z" fill="#282828"/>
<path d="M415.313 49.9909H397.243L394.555 55.7241H383.092V54.0334L403.722 9.5278H408.766L429.456 54.0334V55.7241H417.994L415.313 49.9909ZM406.206 28.0349L401.034 40.0273H411.515L406.206 28.0349Z" fill="#282828"/>
<path d="M147.285 74.9224C147.285 74.1635 147.285 73.4121 147.285 72.6682H154.655C154.655 73.4196 154.655 74.1635 154.655 74.9224H152.231V82.5417C151.393 82.5417 150.555 82.5417 149.724 82.5417V74.9224H147.285Z" fill="#282828"/>
<path d="M156.346 77.6124C156.346 70.7822 166.525 70.7822 166.525 77.6124C166.525 84.4577 156.346 84.4577 156.346 77.6124ZM163.928 77.6124C163.928 74.0583 158.952 74.0583 158.952 77.6124C158.952 81.1966 163.928 81.1966 163.928 77.6124Z" fill="#282828"/>
<path d="M169.161 82.5417C169.161 79.258 169.161 75.9669 169.161 72.6682C170.595 72.6682 172.068 72.6682 173.525 72.6682C178.275 72.6832 178.275 80.0169 173.525 80.0169H171.698V82.5417C170.852 82.5417 169.999 82.5417 169.161 82.5417ZM173.518 74.9224C172.921 74.9074 172.287 74.9224 171.705 74.9224C171.705 75.7264 171.705 76.9437 171.705 77.7477H173.518C174.907 77.7402 174.99 74.9375 173.518 74.9224Z" fill="#282828"/>
<path d="M182.307 82.5416C181.454 82.5416 180.593 82.5416 179.725 82.5416V72.6607C181.749 72.6607 183.878 72.6607 185.909 72.6607C185.909 73.4947 185.909 74.0733 185.909 74.9149H182.307V82.5416Z" fill="#282828"/>
<path d="M187.495 77.6124C187.495 70.7822 197.674 70.7822 197.674 77.6124C197.674 84.4577 187.495 84.4577 187.495 77.6124ZM195.084 77.6124C195.084 74.0583 190.108 74.0583 190.108 77.6124C190.108 81.1966 195.084 81.1966 195.084 77.6124Z" fill="#282828"/>
<path d="M206.864 77.402C207.672 77.8078 208.057 78.5442 208.057 79.4233C208.042 81.144 206.992 82.5416 204.968 82.5416H200.317V72.6607H204.553C206.267 72.6607 207.641 73.9831 207.641 75.6963C207.641 76.29 207.347 77.0113 206.864 77.402ZM202.771 74.9224V76.5154H204.372C205.376 76.5154 205.376 74.9224 204.357 74.9224H202.771ZM202.771 78.6193V80.2949H204.795C205.814 80.2949 205.799 78.6193 204.78 78.6193H202.771Z" fill="#282828"/>
<path d="M210.156 77.6124C210.156 70.7822 220.335 70.7822 220.335 77.6124C220.335 84.4577 210.156 84.4577 210.156 77.6124ZM217.737 77.6124C217.737 74.0583 212.761 74.0583 212.761 77.6124C212.761 81.1966 217.737 81.1966 217.737 77.6124Z" fill="#282828"/>
<path d="M230.265 78.2662V79.1829H226.761V78.2662H230.265Z" fill="#282828"/>
<path d="M241.788 72.548C243.842 72.548 246.069 73.66 246.454 76.2975C245.586 76.2975 244.823 76.2975 243.962 76.2975C243.607 75.2981 242.86 74.8473 241.795 74.8473C240.308 74.8473 239.326 75.9593 239.326 77.5974C239.326 79.0476 240.293 80.3175 241.795 80.3325C242.875 80.3325 243.736 79.799 244.008 78.7395C244.861 78.7395 245.639 78.7395 246.5 78.7395C246.13 81.5348 243.902 82.6318 241.795 82.6318C239.273 82.6468 236.721 80.9562 236.706 77.5974C236.713 74.2461 239.266 72.548 241.788 72.548Z" fill="#282828"/>
<path d="M255.357 74.9224C253.885 74.9224 253.145 74.9224 251.687 74.9224V76.32H255.063C255.063 77.0714 255.063 77.8153 255.063 78.5667H251.687C251.687 79.1453 251.687 79.7088 251.687 80.3025C253.145 80.3025 253.998 80.3025 255.485 80.3025C255.485 81.0388 255.485 81.7977 255.485 82.5491C253.16 82.5491 251.461 82.5491 249.165 82.5491C249.165 79.2505 249.165 75.9443 249.165 72.6757C251.461 72.6757 253.039 72.6757 255.357 72.6757C255.357 73.3971 255.357 74.156 255.357 74.9224Z" fill="#282828"/>
<path d="M258.393 82.5417C258.393 79.258 258.393 75.9669 258.393 72.6682C259.827 72.6682 261.3 72.6682 262.757 72.6682C267.507 72.6832 267.507 80.0169 262.757 80.0169H260.93V82.5417C260.077 82.5417 259.231 82.5417 258.393 82.5417ZM262.742 74.9224C262.146 74.9074 261.511 74.9224 260.93 74.9224C260.93 75.7264 260.93 76.9437 260.93 77.7477H262.742C264.131 77.7402 264.222 74.9375 262.742 74.9224Z" fill="#282828"/>
<path d="M275.504 77.402C276.311 77.8078 276.697 78.5442 276.697 79.4233C276.681 81.144 275.632 82.5416 273.608 82.5416H268.957V72.6607H273.193C274.907 72.6607 276.281 73.9831 276.281 75.6963C276.289 76.29 275.987 77.0113 275.504 77.402ZM271.411 74.9224V76.5154H273.012C274.016 76.5154 274.016 74.9224 272.997 74.9224H271.411ZM271.411 78.6193V80.2949H273.434C274.454 80.2949 274.439 78.6193 273.419 78.6193H271.411Z" fill="#282828"/>
<path d="M280.329 82.5567H279.423V72.6607C280.291 72.6607 281.152 72.6607 282.02 72.6607V77.4997L287.042 72.6156H287.963V82.5341C287.095 82.5341 286.219 82.5341 285.343 82.5341V77.6801L280.329 82.5567Z" fill="#282828"/>
<path d="M295.71 72.548C297.764 72.548 299.992 73.66 300.377 76.2975C299.509 76.2975 298.746 76.2975 297.885 76.2975C297.53 75.2981 296.783 74.8473 295.718 74.8473C294.23 74.8473 293.249 75.9593 293.249 77.5974C293.249 79.0476 294.215 80.3175 295.718 80.3325C296.798 80.3325 297.659 79.799 297.93 78.7395C298.784 78.7395 299.561 78.7395 300.422 78.7395C300.052 81.5348 297.825 82.6318 295.718 82.6318C293.196 82.6468 290.644 80.9562 290.628 77.5974C290.636 74.2461 293.188 72.548 295.71 72.548Z" fill="#282828"/>
<path d="M311.349 82.5416C310.48 82.5416 309.62 82.5416 308.751 82.5416V78.5742H305.685V82.5416C304.817 82.5416 303.941 82.5416 303.088 82.5416V72.6607C303.941 72.6607 304.817 72.6607 305.685 72.6607V76.2449H308.751V72.6607C309.62 72.6607 310.48 72.6607 311.349 72.6607V82.5416Z" fill="#282828"/>
<path d="M320.342 81.2943H316.431L315.849 82.5341H313.365V82.1659L317.828 72.533H318.923L323.4 82.1659V82.5341H320.924L320.342 81.2943ZM318.371 76.5455L317.254 79.1378H319.519L318.371 76.5455Z" fill="#282828"/>
<path d="M326.693 79.0401C324.186 77.3494 324.896 72.6757 328.792 72.6607C330.234 72.6607 331.714 72.6607 333.141 72.6607C333.141 75.9593 333.141 79.2505 333.141 82.5341C332.318 82.5341 331.458 82.5341 330.604 82.5341V79.6262H329.283L327.584 82.5341H324.745V82.1659L326.693 79.0401ZM330.604 77.3645C330.604 76.5755 330.604 75.7264 330.604 74.9224C330.008 74.9224 329.389 74.9074 328.792 74.9224C327.342 74.9374 327.418 77.3645 328.792 77.3645H330.604Z" fill="#282828"/>
<path d="M341.025 82.5416V72.6607C341.878 72.6607 342.724 72.6607 343.607 72.6607V76.4027H343.789C346.326 76.4027 346.197 74.5091 346.197 72.6607C347.066 72.6607 347.927 72.6607 348.803 72.6607C348.803 74.682 348.863 76.5379 346.892 77.7928L349.588 82.1359V82.5341H346.764L344.581 78.7095C344.242 78.7621 343.932 78.7621 343.6 78.7621V82.5266C342.731 82.5416 341.878 82.5416 341.025 82.5416Z" fill="#282828"/>
<path d="M351.166 77.6124C351.166 70.7822 361.345 70.7822 361.345 77.6124C361.345 84.4577 351.166 84.4577 351.166 77.6124ZM358.747 77.6124C358.747 74.0583 353.771 74.0583 353.771 77.6124C353.771 81.1966 358.747 81.1966 358.747 77.6124Z" fill="#282828"/>
<path d="M372.747 72.6382H373.653V82.5416C372.785 82.5416 371.924 82.5416 371.056 82.5416V78.1384L368.941 80.34H368.654L366.555 78.1384V82.5416C365.687 82.5416 364.826 82.5416 363.958 82.5416V72.6382H364.894L368.775 76.9287L372.747 72.6382Z" fill="#282828"/>
<path d="M385.169 82.5416C384.3 82.5416 383.44 82.5416 382.571 82.5416V74.99H379.505V82.5341C378.637 82.5341 377.761 82.5341 376.908 82.5341V72.6607C377.761 72.6607 378.637 72.6607 385.161 72.6607V82.5416H385.169Z" fill="#282828"/>
<path d="M394.155 81.2943H390.243L389.662 82.5341H387.177V82.1659L391.64 72.533H392.735L397.213 82.1659V82.5341H394.729L394.155 81.2943ZM392.184 76.5455L391.066 79.1378H393.332L392.184 76.5455Z" fill="#282828"/>
<path d="M407.513 82.5416C406.644 82.5416 405.783 82.5416 404.915 82.5416V78.5742H401.849V82.5416C400.981 82.5416 400.105 82.5416 399.252 82.5416V72.6607C400.105 72.6607 400.981 72.6607 401.849 72.6607V76.2449H404.915V72.6607C405.776 72.6607 406.644 72.6607 407.513 72.6607V82.5416Z" fill="#282828"/>
<path d="M411.696 82.5567H410.79V72.6607C411.658 72.6607 412.519 72.6607 413.388 72.6607V77.4997L418.409 72.6156H419.33V82.5341C418.462 82.5341 417.586 82.5341 416.71 82.5341V77.6801L411.696 82.5567Z" fill="#282828"/>
<path d="M423.551 79.0401C421.044 77.3494 421.754 72.6757 425.651 72.6607C427.093 72.6607 428.573 72.6607 430 72.6607C430 75.9593 430 79.2505 430 82.5341C429.177 82.5341 428.316 82.5341 427.463 82.5341V79.6262H426.141L424.442 82.5341H421.603V82.1659L423.551 79.0401ZM427.463 77.3645C427.463 76.5755 427.463 75.7264 427.463 74.9224C426.866 74.9224 426.247 74.9074 425.651 74.9224C424.201 74.9374 424.276 77.3645 425.651 77.3645H427.463Z" fill="#282828"/>
</g>
<defs>
<linearGradient id="paint0_linear" x1="1.62461" y1="-10.9261" x2="130.829" y2="48.7314" gradientUnits="userSpaceOnUse">
<stop stop-color="#00A2E3"/>
<stop offset="0.6335" stop-color="#13509B"/>
<stop offset="1" stop-color="#1D2576"/>
</linearGradient>
<linearGradient id="paint1_linear" x1="0.677451" y1="-8.87475" x2="129.882" y2="50.7827" gradientUnits="userSpaceOnUse">
<stop stop-color="#00A2E3"/>
<stop offset="0.6335" stop-color="#13509B"/>
<stop offset="1" stop-color="#1D2576"/>
</linearGradient>
<linearGradient id="paint2_linear" x1="-3.96148" y1="1.17226" x2="125.243" y2="60.8297" gradientUnits="userSpaceOnUse">
<stop stop-color="#00A2E3"/>
<stop offset="0.6335" stop-color="#13509B"/>
<stop offset="1" stop-color="#1D2576"/>
</linearGradient>
<linearGradient id="paint3_linear" x1="-20.3688" y1="36.707" x2="108.836" y2="96.3643" gradientUnits="userSpaceOnUse">
<stop stop-color="#00A2E3"/>
<stop offset="0.6335" stop-color="#13509B"/>
<stop offset="1" stop-color="#1D2576"/>
</linearGradient>
<linearGradient id="paint4_linear" x1="-8.94661" y1="11.9689" x2="120.258" y2="71.6263" gradientUnits="userSpaceOnUse">
<stop stop-color="#00A2E3"/>
<stop offset="0.6335" stop-color="#13509B"/>
<stop offset="1" stop-color="#1D2576"/>
</linearGradient>
<clipPath id="clip0">
<rect width="430" height="83" fill="white"/>
</clipPath>
</defs>
</svg>
