<svg width="50" height="34" viewBox="0 0 50 34" fill="none" xmlns="http://www.w3.org/2000/svg">
<g clip-path="url(#clip0)">
<path d="M1.32585e-06 2.9029C0.0573737 2.77309 0.121496 2.64497 0.170431 2.51347C0.254802 2.29432 0.334111 2.26566 0.502853 2.42413C1.10189 2.9872 1.69586 3.55532 2.29321 4.11839C3.25504 5.02537 4.21856 5.92898 5.18207 6.83428C5.78786 7.40409 6.39533 7.97391 7.00112 8.54372C7.8482 9.33944 8.69697 10.1335 9.54237 10.9309C10.8012 12.116 12.0566 13.3028 13.3154 14.488C14.041 15.1724 14.7717 15.8518 15.4973 16.5363C15.9326 16.9493 16.3596 17.3708 16.7966 17.7821C17.2117 18.1749 17.6353 18.561 18.0537 18.9504C18.0942 18.9875 18.1263 19.033 18.1887 19.1072C17.9845 19.2707 17.7905 19.4342 17.588 19.586C16.827 20.1575 16.0659 20.7273 15.3015 21.2937C14.3971 21.9647 13.4859 22.6289 12.5831 23.2999C11.7158 23.9439 10.8552 24.5996 9.98785 25.2436C8.91465 26.041 7.83301 26.83 6.75981 27.6274C5.69336 28.4214 4.63197 29.2222 3.56721 30.0196C2.63069 30.7209 1.6908 31.4206 0.754279 32.1235C0.588912 32.2483 0.477542 32.2416 0.398233 32.0342C0.269989 31.7004 0.13162 31.3717 -0.0016861 31.0396C1.32585e-06 21.6629 1.32585e-06 12.2829 1.32585e-06 2.9029Z" fill="black"/>
<path d="M2.44339 0.1905C2.75556 0.131495 3.06774 0.0252876 3.37991 0.0219159C5.30526 0.00168584 7.23061 0.00168584 9.15595 0C14.4983 0 19.839 0 25.1797 0C30.7617 0 36.3437 0.00168584 41.9257 0.00337168C43.4899 0.00337168 45.0542 0 46.6184 0.0219159C46.934 0.0269734 47.2495 0.136553 47.5651 0.197243C47.5651 0.227588 47.5667 0.257933 47.5667 0.289964C46.9508 0.868207 46.3316 1.44476 45.7173 2.02638C44.9546 2.7496 44.1987 3.47789 43.4359 4.20111C42.9415 4.66977 42.4404 5.13338 41.9443 5.60036C41.3739 6.13814 40.8069 6.67929 40.2332 7.21371C39.2697 8.11394 38.296 9.00407 37.3359 9.90768C36.5715 10.6275 35.8223 11.3659 35.0596 12.0875C34.5314 12.5865 33.9847 13.0669 33.4531 13.5626C32.9149 14.065 32.3884 14.5808 31.8518 15.0866C31.2477 15.6564 30.6368 16.2195 30.0327 16.7876C29.5164 17.2748 29.027 17.794 28.4854 18.2526C27.2806 19.2759 25.9053 19.7951 24.2972 19.5692C23.4585 19.4512 22.6722 19.1646 22.0192 18.6488C21.2548 18.0452 20.5663 17.3439 19.8508 16.6814C18.8299 15.7356 17.8107 14.7848 16.7949 13.834C16.4659 13.5255 16.1537 13.1984 15.8246 12.8899C15.0991 12.2105 14.3633 11.5413 13.6377 10.8619C12.924 10.1926 12.222 9.5115 11.5099 8.84054C10.9531 8.31624 10.3878 7.80038 9.82924 7.27777C9.3112 6.79224 8.79991 6.29829 8.28356 5.81109C7.78071 5.33568 7.27448 4.86365 6.77163 4.38824C6.39702 4.03253 6.02747 3.67176 5.65118 3.31773C4.8969 2.60294 4.13419 1.89151 3.37316 1.18009C3.0593 0.885065 2.74712 0.588358 2.43495 0.293336C2.43833 0.257933 2.44001 0.224217 2.44339 0.1905Z" fill="black"/>
<path d="M2.26115 33.6897C2.76737 33.3121 3.2331 32.9682 3.69546 32.6192C4.5476 31.9769 5.393 31.3261 6.25021 30.6906C7.33016 29.8915 8.42361 29.1093 9.50525 28.3085C10.1937 27.7994 10.8636 27.265 11.5487 26.7541C12.4262 26.1 13.3138 25.4594 14.1946 24.8087C14.6991 24.4361 15.2003 24.0585 15.7031 23.6826C16.4321 23.138 17.1611 22.5935 17.89 22.0507C18.4874 21.6056 19.0898 21.1673 19.6753 20.7087C19.834 20.5857 19.9048 20.6919 20.0061 20.7576C20.4853 21.0661 20.9493 21.4033 21.4505 21.6747C22.2284 22.0962 23.0687 22.3558 23.953 22.4384C24.4288 22.4822 24.908 22.5227 25.3839 22.5126C25.7838 22.5025 26.1871 22.4317 26.582 22.3592C27.3717 22.2142 28.1209 21.9411 28.8178 21.5432C29.2008 21.3241 29.5603 21.0628 29.9197 20.8065C30.0935 20.6818 30.2082 20.6329 30.4192 20.7947C31.5025 21.6174 32.6145 22.4047 33.7063 23.2173C34.798 24.0298 35.8763 24.8643 36.968 25.6786C38.0598 26.4928 39.1617 27.2919 40.2551 28.1028C40.9065 28.585 41.5477 29.0806 42.1957 29.5678C42.6293 29.8932 43.0681 30.2135 43.5051 30.5372C44.229 31.0733 44.9546 31.6111 45.6785 32.1488C46.291 32.604 46.9002 33.0626 47.5111 33.5194C47.5819 33.5717 47.6511 33.629 47.7203 33.6829C47.7186 33.715 47.7169 33.7453 47.7169 33.7774C47.3457 33.8482 46.9761 33.9763 46.6049 33.9813C44.4113 34.0049 42.2176 34.0016 40.024 34.0016C34.4605 34.0033 28.8971 34.0016 23.3337 34.0016C17.7702 34.0016 12.2068 34.0016 6.64338 34.0016C5.64443 34.0016 4.64379 34.0033 3.64483 33.9982C3.18079 33.9931 2.72688 33.951 2.26115 33.6897Z" fill="black"/>
<path d="M31.7505 19.0906C32.0374 18.831 32.2838 18.6118 32.5251 18.3859C33.4987 17.4806 34.474 16.577 35.4409 15.665C36.7925 14.3905 38.1357 13.1076 39.4874 11.8347C40.4678 10.9109 41.4583 9.99718 42.4387 9.07334C43.603 7.97755 44.7606 6.87501 45.9249 5.7809C46.9407 4.82503 47.9599 3.8759 48.9774 2.9234C49.1597 2.75313 49.3368 2.57781 49.514 2.40248C49.649 2.2693 49.7604 2.30807 49.8026 2.46654C49.8819 2.76494 49.9882 3.07176 49.9882 3.37521C49.9983 12.4872 49.9983 21.5974 49.9899 30.7094C49.9899 31.2573 49.7503 31.7496 49.4634 32.2823C43.5692 27.889 37.7021 23.521 31.7505 19.0906Z" fill="black"/>
</g>
<defs>
<clipPath id="clip0">
<rect width="50" height="34" fill="white"/>
</clipPath>
</defs>
</svg>
