<svg width="39" height="62" viewBox="0 0 39 62" fill="none" xmlns="http://www.w3.org/2000/svg">
<g clip-path="url(#clip0)">
<path d="M20.7699 0C21.5692 0.130012 22.3746 0.228266 23.166 0.394007C31.1786 2.0673 37.5268 8.7138 38.7453 16.7835C39.3485 20.7821 38.8528 24.6736 37.48 28.4945C36.2815 31.8312 34.632 34.9376 32.9257 38.0172C28.5715 45.8745 24.1645 53.703 19.7774 61.5425C19.7057 61.6705 19.6251 61.7946 19.5006 62C19.0855 61.2825 18.6923 60.6244 18.32 59.9545C13.8941 52.0039 9.47213 44.0513 5.04622 36.1007C3.21354 32.8078 1.569 29.4225 0.714875 25.7405C-1.02821 18.2255 0.303741 11.4381 5.89437 5.81979C9.20733 2.49207 13.237 0.549823 17.9457 0.0784044C18.0592 0.0674873 18.1697 0.0267964 18.2812 0C19.1104 0 19.9406 0 20.7699 0ZM27.8985 19.7916C27.9582 15.1906 24.254 11.3508 19.6937 11.2873C15.0478 11.2227 11.2501 14.9306 11.1923 19.5862C11.1346 24.2518 14.8029 28.1055 19.3652 28.173C24.05 28.2424 27.8368 24.5227 27.8985 19.7916Z" fill="black"/>
</g>
<defs>
<clipPath id="clip0">
<rect width="39" height="62" fill="white"/>
</clipPath>
</defs>
</svg>
