<svg width="45" height="36" viewBox="0 0 45 36" fill="none" xmlns="http://www.w3.org/2000/svg">
<g clip-path="url(#clip0)">
<path d="M22.4889 35.9919C18.1287 35.9919 13.7685 35.993 9.40828 35.9919C7.15123 35.9907 5.29056 34.3777 4.9583 32.1531C4.85454 31.4579 4.97112 30.7802 5.06672 30.099C5.18797 29.2298 5.32087 28.363 5.44795 27.4938C5.64148 26.1639 5.8385 24.834 6.02503 23.5029C6.09732 22.99 6.18009 22.4829 6.42142 22.0164C6.98568 20.9197 7.90436 20.2954 9.09118 20.0099C10.4016 19.6954 11.6607 19.2463 12.8102 18.5292C14.6918 17.3559 15.8017 15.657 16.2471 13.5136C16.359 12.9775 16.4313 12.4309 16.4791 11.8855C16.4989 11.6662 16.5863 11.607 16.767 11.5861C17.3569 11.52 17.9445 11.4167 18.5368 11.3911C20.1106 11.325 21.6868 11.2554 23.2619 11.2554C24.9115 11.2554 26.5612 11.3331 28.198 11.5815C28.3997 11.6116 28.4965 11.6627 28.5151 11.9052C28.6282 13.408 28.9651 14.8528 29.7707 16.1514C30.6171 17.5161 31.8389 18.4503 33.2834 19.121C34.1822 19.5388 35.1277 19.8138 36.0837 20.0598C37.7229 20.4822 38.7535 21.7019 38.9575 23.3683C39.1207 24.7029 39.3434 26.0293 39.5346 27.3603C39.6931 28.4639 39.8249 29.5722 40.0033 30.6735C40.1525 31.6007 40.0744 32.4977 39.6815 33.3425C38.9831 34.8453 37.815 35.7992 36.1362 35.9315C34.806 36.036 33.4641 35.9896 32.1269 35.993C28.915 35.9988 25.702 35.9954 22.4901 35.9954C22.4889 35.993 22.4889 35.993 22.4889 35.9919ZM22.5041 30.3416C25.6798 30.3288 28.2202 27.8106 28.2062 24.6889C28.191 21.6033 25.6227 19.0862 22.4913 19.0908C19.3598 19.0955 16.7868 21.6288 16.7915 24.7029C16.795 27.8384 19.3435 30.3543 22.5041 30.3416Z" fill="black"/>
<path d="M22.6478 6.64735C21.1287 6.71814 19.7495 6.75063 18.3773 6.85392C16.751 6.97693 15.1235 7.151 13.5997 7.79157C13.2115 7.9552 12.8443 8.19542 12.5097 8.4542C12.1424 8.73851 11.9874 9.14468 11.9827 9.62279C11.9746 10.4514 11.9629 11.2823 11.8918 12.1062C11.7729 13.4813 11.0058 14.4178 9.7723 14.9981C8.8338 15.439 7.84051 15.7002 6.82041 15.858C6.16987 15.9578 5.51468 16.0576 4.85831 16.0936C3.7601 16.1527 2.69802 16.0007 1.78051 15.3253C1.02388 14.7695 0.601853 13.9896 0.35353 13.1088C0.0585742 12.0644 -0.0125417 10.991 0.00261417 9.91291C0.00960917 9.43131 -0.00321499 8.93812 0.094715 8.47045C0.289409 7.54207 0.901472 6.84927 1.55784 6.20522C2.57677 5.20605 3.76709 4.44131 5.02153 3.77056C6.96031 2.73426 9.01451 1.99272 11.1328 1.41597C13.25 0.840378 15.4044 0.456263 17.5869 0.242737C19.7064 0.0350135 21.8317 -0.0497006 23.964 0.0234088C25.6475 0.0814321 27.3251 0.196318 28.9922 0.431893C32.6891 0.955264 36.2659 1.88712 39.613 3.57792C40.9117 4.23358 42.1405 4.99949 43.2142 5.99053C43.8904 6.61486 44.506 7.29141 44.8184 8.17569C44.9222 8.47161 44.9805 8.79654 44.9886 9.10986C45.0178 10.2262 45.005 11.3438 44.7974 12.4474C44.6319 13.3305 44.3393 14.1579 43.7342 14.8484C43.1431 15.5238 42.3783 15.8649 41.5086 16.0193C40.5165 16.1957 39.5372 16.0669 38.5579 15.9195C37.4387 15.7512 36.344 15.4982 35.3064 15.034C33.8398 14.3784 33.1123 13.2342 33.0552 11.6536C33.0307 10.9643 33.0248 10.2738 33.0202 9.58449C33.0167 9.07853 32.794 8.68978 32.414 8.37297C31.7762 7.84147 31.0126 7.56296 30.2234 7.4005C29.1683 7.18349 28.1004 7.00014 27.029 6.90266C25.5274 6.76688 24.0165 6.72278 22.6478 6.64735Z" fill="black"/>
</g>
<defs>
<clipPath id="clip0">
<rect width="45" height="36" fill="white"/>
</clipPath>
</defs>
</svg>
